<svg xmlns="http://www.w3.org/2000/svg" viewBox="0 0 512 512" role="img" aria-label="FoxBridge">
  <rect width="512" height="512" rx="96" fill="#111827"/>
  <path fill="#ffffff" d="M156 176c0-33 27-60 60-60h80c33 0 60 27 60 60v24c36 8 64 40 64 78v38c0 44-36 80-80 80H172c-44 0-80-36-80-80v-38c0-38 28-70 64-78v-24zm60-20c-11 0-20 9-20 20v16h120v-16c0-11-9-20-20-20h-80zm-44 102v38c0 24 20 44 44 44h168c24 0 44-20 44-44v-38c0-24-20-44-44-44H216c-24 0-44 20-44 44z"/>
  <circle cx="208" cy="280" r="20" fill="#111827"/>
  <circle cx="304" cy="280" r="20" fill="#111827"/>
</svg>
